<!-- Generator: Adobe Illustrator 18.0.0, SVG Export Plug-In . SVG Version: 6.00 Build 0)  -->
<!DOCTYPE svg PUBLIC "-//W3C//DTD SVG 1.1//EN" "http://www.w3.org/Graphics/SVG/1.1/DTD/svg11.dtd">
<svg version="1.1" id="Livello_1" xmlns="http://www.w3.org/2000/svg" xmlns:xlink="http://www.w3.org/1999/xlink" x="0px" y="0px" viewBox="70.8 242.4 595.3 681.1" enable-background="new 70.8 242.4 595.3 681.1" xml:space="preserve">
<path fill="#3A3A38" d="M664.5,801.6L664.5,801.6l-0.8-3.9c-21.9-114.8-121.1-198.4-237.5-198.4H311.4  c-118.7,0-220.3,86.7-239.1,203.9c-0.8,5.5-1.6,10.9-1.6,17.2c0,56.3,46.1,103.1,103.1,103.1h388.2c57.9,0,103.9-47.6,103.9-103.1  C665.9,813.3,665.2,807.1,664.5,801.6z M605.9,854.7L605.9,854.7c-10.9,12.5-25.7,20.3-42.9,20.3H174.7c-16.4,0-31.2-7.1-42.9-19.5  c-8.5-10.1-13.3-22.7-13.3-36c0-3.1,0-6.3,0.8-8.5c14.8-94.5,95.3-164,191.3-164h115.6c93.7,0,174.1,66.4,190.5,158.5v0.8l0.8,3.1  c0.8,3.1,0.8,7.1,0.8,10.1C618.3,832,614.5,844.6,605.9,854.7z M247.4,529.1c36,36,82.8,53.9,128.8,53.9c44.5,0,90.7-17.2,125.7-50  l1.6-1.6c33.6-32,50.8-74.9,50.8-118.7c0-36.7-12.5-73.5-37.5-103.9c-36.7-43.7-88.3-66.4-139.9-66.4l0,0h-0.8l0,0  c-53.1,0-107.1,23.5-142.1,70.3c-22.7,29.7-34.4,64.8-34.4,100.8c0,41.3,15.6,82,46.1,114C245.8,526.7,246.6,527.5,247.4,529.1z   M271.5,340.8c25.7-32.8,64-51.6,106.3-52.4c40.7,0,78.1,18,103.9,49.2c17.2,21.1,26.5,47.6,26.5,74.3c0,31.2-12.5,61.7-36,84.4  l-2.4,2.4c-24.9,24.3-57.9,36.7-92.1,36.7c-36,0-69.5-14-95.3-39.9l-0.8-0.8c-22.7-22.7-33.6-52.4-33.6-82  C246.6,387.6,254.4,361.9,271.5,340.8z"/>
</svg>